PathFileType	4	(X/Y/Z)	D:\Share\Shared_Data\Ergonomics\Sit To Stand Pertubation\S1\Unperturbed_NoHarness.trc
DataRate	CameraRate	NumFrames	NumMarkers	Units	OrigDataRate	OrigDataStartFrame	OrigNumFrames	
100	100	11	18	m	100	223	211
Frame#	Time	R_Thigh_Med			R_ASIS			R_Pelvis			V_Sacral			L_Pelvis			L_ASIS			Clavical			R_Acromium			L_Acromium			Sternum			Torso			R_Thigh_Lat			R_Thigh			R_Shank_Med			R_Shank_Lat			R_Shank			R_Heel			R_Toe			
		X1	Y1	Z1	X2	Y2	Z2	X3	Y3	Z3	X4	Y4	Z4	X5	Y5	Z5	X6	Y6	Z6	X7	Y7	Z7	X8	Y8	Z8	X9	Y9	Z9	X10	Y10	Z10	X11	Y11	Z11	X12	Y12	Z12	X13	Y13	Z13	X14	Y14	Z14	X15	Y15	Z15	X16	Y16	Z16	X17	Y17	Z17	X18	Y18	Z18	

223	2.22	0.31410559	0.41582361	0.02145126	0.075255264	0.61052545	0.083818268	-0.0040946894	0.6480993	0.10839998	-0.12077659	0.62094354	-0.022065107	0.011808522	0.64943127	-0.15635056	0.10299744	0.62007019	-0.12779031	0.31731564	0.84097406	-0.0032153623	0.30742593	0.94165222	0.13783315	0.26075604	0.9485802	-0.190855	0.30135123	0.86435461	0.094770897	0.31888672	0.85587463	-0.057141521	0.30936072	0.43398224	0.14210728	0.1882049	0.55369989	0.090635361	0.3113667	0.097451447	0.071575928	0.28209265	0.098887413	0.14968536	0.29970523	0.31120309	0.16171515	0.24073656	0.037487534	0.1012168	0.44569119	0.060767242	0.11816672
224	2.23	0.31666614	0.41550372	0.021583153	0.080057709	0.60971265	0.084079109	0.00097305876	0.64910901	0.10815789	-0.11570139	0.62319849	-0.022780079	0.018138102	0.65012732	-0.15585695	0.10852819	0.61941565	-0.12806148	0.32636945	0.83740918	-0.003129909	0.31641696	0.93847113	0.13743987	0.27008356	0.94603839	-0.19075478	0.30989648	0.86109888	0.094622719	0.32726932	0.85239557	-0.056848537	0.31198431	0.43357007	0.14215753	0.19114546	0.55448297	0.090857597	0.31178659	0.097324944	0.071513977	0.28242606	0.098909302	0.14970076	0.30163046	0.31109171	0.16163623	0.24079092	0.037402866	0.10120882	0.44581631	0.060144436	0.11817651
225	2.24	0.31955304	0.41517368	0.021740181	0.084932198	0.60879236	0.084169334	0.0060526037	0.65001953	0.10788373	-0.11059785	0.62507098	-0.023488581	0.024351307	0.65063208	-0.15548714	0.11402107	0.61879138	-0.12841484	0.33510291	0.83413629	-0.0030487115	0.3250062	0.93550818	0.13708008	0.27896042	0.94359363	-0.19066473	0.31805884	0.85809393	0.094481003	0.33533038	0.84915796	-0.056593872	0.31493567	0.43315051	0.14223759	0.19452701	0.55513	0.090974144	0.31229477	0.097164612	0.071462219	0.28284204	0.098909996	0.14970605	0.30372543	0.31093503	0.16155922	0.24088933	0.03737809	0.10119019	0.44601761	0.059301956	0.11819457
226	2.25	0.32278683	0.41482849	0.021922438	0.089872253	0.60780457	0.084103691	0.011139159	0.65079712	0.10760721	-0.10548196	0.62655829	-0.02412472	0.030397491	0.65095221	-0.15522345	0.11944207	0.61820312	-0.12883009	0.34344321	0.83119781	-0.0029633658	0.3331467	0.93282776	0.13676549	0.28736203	0.94128229	-0.19058905	0.32577374	0.85539441	0.094356613	0.34301578	0.84621307	-0.05636956	0.31823447	0.43271964	0.1423521	0.19838292	0.5556156	0.09099456	0.31288568	0.096969551	0.071420715	0.2833457	0.098886971	0.14970317	0.30600693	0.31072159	0.16149954	0.24102905	0.037413795	0.10116162	0.44630106	0.058262554	0.11821941
227	2.26	0.32637006	0.41445053	0.022119789	0.094867905	0.60681641	0.083926598	0.016231976	0.65142554	0.10736594	-0.10035357	0.62769214	-0.024637018	0.036253693	0.65111041	-0.15504109	0.12477926	0.61766449	-0.12927087	0.35133121	0.8286347	-0.0028690109	0.34079724	0.93049329	0.13650522	0.29527667	0.93914722	-0.19053969	0.33300507	0.85305438	0.094256241	0.350285	0.84361719	-0.056170609	0.32188165	0.43226056	0.14249698	0.20270738	0.55593011	0.090950447	0.3135495	0.096738167	0.071384735	0.28394016	0.098837463	0.14969153	0.30848929	0.31044034	0.16146463	0.24120718	0.037506989	0.10112531	0.44665985	0.05707954	0.11824955
228	2.27	0.33028485	0.41401532	0.02231139	0.099905937	0.60591553	0.083707016	0.021331291	0.65191071	0.10719602	-0.095201981	0.62853143	-0.024996855	0.041925762	0.65114172	-0.15491426	0.1300397	0.61719672	-0.12969467	0.35870782	0.82648846	-0.0027652593	0.3479263	0.92856232	0.13630571	0.30270279	0.93723737	-0.19053241	0.3397392	0.85112427	0.094182846	0.35710983	0.84142859	-0.055995472	0.32585614	0.43174878	0.14265852	0.20745891	0.55608246	0.09089077	0.31427341	0.096470612	0.071344849	0.28462299	0.098761719	0.14966765	0.3111778	0.31008594	0.16145058	0.24142018	0.037650204	0.10108282	0.44706729	0.055844868	0.11828819
229	2.28	0.33449673	0.41350146	0.022466974	0.10496861	0.60520825	0.083530212	0.026436449	0.65227869	0.10712379	-0.090014565	0.62915063	-0.025198725	0.047442051	0.65108856	-0.15482057	0.13524033	0.61682294	-0.13006377	0.36551407	0.82480133	-0.002656034	0.35451562	0.92708435	0.13617105	0.30964456	0.9356051	-0.19058144	0.34597861	0.84964984	0.094136833	0.36347647	0.83970306	-0.055845097	0.33011911	0.4311611	0.14281355	0.21257408	0.5560968	0.090866982	0.31504254	0.096171265	0.071288116	0.28538391	0.098666031	0.14962589	0.31406552	0.30966275	0.16144125	0.24166257	0.037830177	0.10103225	0.44748798	0.05464299	0.11833381
230	2.29	0.33896237	0.41289926	0.022552025	0.11003669	0.60479456	0.083473465	0.031545435	0.65257196	0.10716283	-0.084783455	0.62962805	-0.025253809	0.052841648	0.65099628	-0.15474263	0.14040106	0.61656097	-0.13034494	0.37170868	0.82361426	-0.0025482416	0.36056247	0.92609985	0.1361024	0.31610812	0.93430176	-0.19069391	0.35174362	0.84866949	0.094117592	0.36939154	0.83848724	-0.055721046	0.33462115	0.43048386	0.14293262	0.21797972	0.55600537	0.090914436	0.3158403	0.095848824	0.07120063	0.2862063	0.098563164	0.14955907	0.31713419	0.30918518	0.16141158	0.24192555	0.038026363	0.10096611	0.44789182	0.053521313	0.11837519
231	2.3	0.34363504	0.41221283	0.022535225	0.11509389	0.60474084	0.083584312	0.036656567	0.65284503	0.10731493	-0.079508698	0.63004034	-0.025181507	0.05816164	0.65091016	-0.15466672	0.14554277	0.61641974	-0.13049818	0.37728851	0.8229624	-0.0024490469	0.36607944	0.92564062	0.13609792	0.32210074	0.93337341	-0.19086816	0.35707281	0.84821234	0.094125	0.37488651	0.83781219	-0.055623798	0.33931018	0.42971564	0.14298607	0.22360036	0.55584137	0.091038277	0.31664926	0.095513992	0.071070801	0.2870701	0.098468849	0.14946054	0.32035526	0.30867215	0.16133411	0.24219736	0.038209694	0.10086955	0.44825809	0.052495556	0.11839709
232	2.31	0.34846533	0.41145621	0.022394753	0.12012846	0.60508099	0.083880089	0.041771435	0.65315454	0.10757341	-0.074197845	0.63045947	-0.025002455	0.063427986	0.65087494	-0.15458087	0.1506853	0.61640228	-0.13046771	0.38229944	0.82287097	-0.0023628891	0.37109268	0.92572913	0.13615327	0.32763226	0.93285651	-0.19109521	0.36201535	0.84829694	0.094160446	0.38001526	0.8376908	-0.055553112	0.34413428	0.42886639	0.14294969	0.22936333	0.55563501	0.091212151	0.3174527	0.095176849	0.070892494	0.28795453	0.098396431	0.1493264	0.32369226	0.30814105	0.16118597	0.24246539	0.03834193	0.10071951	0.44857492	0.051563759	0.11838711
233	2.32	0.35339832	0.41064554	0.022121639	0.12513442	0.60582465	0.084354851	0.046896523	0.65355249	0.10792839	-0.068863747	0.63095166	-0.024733574	0.068652168	0.65093433	-0.15447401	0.15584363	0.61651489	-0.13018181	0.3868327	0.82335382	-0.0022898204	0.37563998	0.92637811	0.13626241	0.33271854	0.9327746	-0.19136203	0.36662112	0.84893091	0.094225883	0.3848407	0.8381214	-0.055509659	0.34904416	0.42795355	0.14280823	0.23520508	0.55541211	0.091391151	0.31823666	0.094845154	0.070666008	0.28884128	0.0983535	0.14915623	0.32710419	0.30760294	0.16095323	0.2427187	0.038375954	0.10048564	0.44883722	0.050718575	0.11833881
